<svg width="24" height="24" viewBox="0 0 24 24" fill="none" xmlns="http://www.w3.org/2000/svg">
<path fill-rule="evenodd" clip-rule="evenodd" d="M8.25251 17.4892C7.93251 17.4892 7.61251 17.3675 7.36918 17.1225C6.88085 16.6342 6.88085 15.8442 7.36918 15.3558L15.3558 7.36918C15.8442 6.88085 16.6342 6.88085 17.1225 7.36918C17.6108 7.85751 17.6108 8.64751 17.1225 9.13585L9.13585 17.1225C8.89251 17.3675 8.57251 17.4892 8.25251 17.4892Z" fill="white"/>
<path fill-rule="evenodd" clip-rule="evenodd" d="M16.2429 17.4946C15.9229 17.4946 15.6029 17.3729 15.3596 17.1279L7.36625 9.13292C6.87792 8.64458 6.87792 7.85458 7.36625 7.36625C7.85625 6.87792 8.64625 6.87792 9.13292 7.36625L17.1262 15.3612C17.6146 15.8496 17.6146 16.6396 17.1262 17.1279C16.8829 17.3729 16.5612 17.4946 16.2429 17.4946Z" fill="white"/>
</svg>
