<svg width="24" height="24" viewBox="0 0 24 24" fill="none" xmlns="http://www.w3.org/2000/svg">
<g id="Iconly/Light-Outline/Upload" opacity="0.45">
<g id="Upload">
<g id="Group 3">
<mask id="mask0" mask-type="alpha" maskUnits="userSpaceOnUse" x="2" y="8" width="20" height="15">
<path id="Clip 2" fill-rule="evenodd" clip-rule="evenodd" d="M2.00037 8.79395H22V22.5379H2.00037V8.79395Z" fill="white"/>
</mask>
<g mask="url(#mask0)">
<path id="Fill 1" fill-rule="evenodd" clip-rule="evenodd" d="M17.5654 22.5379H6.43537C3.99037 22.5379 2.00037 20.5489 2.00037 18.1029V13.2279C2.00037 10.7829 3.99037 8.79395 6.43537 8.79395H7.36837C7.78237 8.79395 8.11837 9.12995 8.11837 9.54395C8.11837 9.95795 7.78237 10.2939 7.36837 10.2939H6.43537C4.81637 10.2939 3.50037 11.6099 3.50037 13.2279V18.1029C3.50037 19.7219 4.81637 21.0379 6.43537 21.0379H17.5654C19.1834 21.0379 20.5004 19.7219 20.5004 18.1029V13.2189C20.5004 11.6059 19.1884 10.2939 17.5764 10.2939H16.6334C16.2194 10.2939 15.8834 9.95795 15.8834 9.54395C15.8834 9.12995 16.2194 8.79395 16.6334 8.79395H17.5764C20.0154 8.79395 22.0004 10.7789 22.0004 13.2189V18.1029C22.0004 20.5489 20.0104 22.5379 17.5654 22.5379Z" fill="white"/>
</g>
</g>
<g id="Group 6">
<mask id="mask1" mask-type="alpha" maskUnits="userSpaceOnUse" x="11" y="2" width="2" height="14">
<path id="Clip 5" fill-rule="evenodd" clip-rule="evenodd" d="M11.25 2H12.75V15.5409H11.25V2Z" fill="white"/>
</mask>
<g mask="url(#mask1)">
<path id="Fill 4" fill-rule="evenodd" clip-rule="evenodd" d="M12 15.541C11.586 15.541 11.25 15.205 11.25 14.791V2.75C11.25 2.336 11.586 2 12 2C12.414 2 12.75 2.336 12.75 2.75V14.791C12.75 15.205 12.414 15.541 12 15.541Z" fill="white"/>
</g>
</g>
<path id="Fill 7" fill-rule="evenodd" clip-rule="evenodd" d="M9.08496 6.42853C8.89396 6.42853 8.70196 6.35553 8.55596 6.20953C8.26296 5.91753 8.26096 5.44353 8.55396 5.14953L11.469 2.22153C11.75 1.93853 12.25 1.93853 12.531 2.22153L15.447 5.14953C15.739 5.44353 15.738 5.91753 15.445 6.20953C15.151 6.50153 14.677 6.50153 14.385 6.20753L12 3.81353L9.61596 6.20753C9.46996 6.35553 9.27696 6.42853 9.08496 6.42853Z" fill="white"/>
</g>
</g>
</svg>
